inDegrees=no
num_controls=7
num_derivatives=13
num_iterations=77
num_multipliers=7
num_parameters=0
num_slacks=7
num_states=26
objective=0.333908
objective_accelerations=0.037285
objective_balance=0.001309
objective_effort=0.027321
objective_height=0.266522
objective_ligament=0.001471
solver_duration=785.164139
status=Solve_Succeeded
success=true
DataType=double
version=3
OpenSimVersion=4.5
endheader
time	/jointset/ground_pelvis/pelvis_tilt/value	/jointset/ground_pelvis/pelvis_tx/value	/jointset/ground_pelvis/pelvis_ty/value	/jointset/hip_r/hip_flexion_r/value	/jointset/hip_r/hip_adduction_r/value	/jointset/hip_r/hip_rotation_r/value	/jointset/back/lumbar_extension/value	/jointset/patellofemoral_r/patellar_flexion_r/value	/jointset/knee_r/knee_flexion_r/value	/jointset/knee_r/knee_adduction_r/value	/jointset/knee_r/knee_rotation_r/value	/jointset/ankle_r/ankle_angle_r/value	/jointset/subtalar_r/subtalar_angle_r/value	/jointset/ground_pelvis/pelvis_tilt/speed	/jointset/ground_pelvis/pelvis_tx/speed	/jointset/ground_pelvis/pelvis_ty/speed	/jointset/hip_r/hip_flexion_r/speed	/jointset/hip_r/hip_adduction_r/speed	/jointset/hip_r/hip_rotation_r/speed	/jointset/back/lumbar_extension/speed	/jointset/patellofemoral_r/patellar_flexion_r/speed	/jointset/knee_r/knee_flexion_r/speed	/jointset/knee_r/knee_adduction_r/speed	/jointset/knee_r/knee_rotation_r/speed	/jointset/ankle_r/ankle_angle_r/speed	/jointset/subtalar_r/subtalar_angle_r/speed	/forceset/tau_hip_flexion_r	/forceset/tau_hip_adduction_r	/forceset/tau_hip_rotation_r	/forceset/tau_knee_flexion_r	/forceset/tau_ankle_angle_r	/forceset/tau_subtalar_angle_r	/forceset/tau_lumbar_extension	lambda_cid13_p0	lambda_cid14_p0	lambda_cid14_p1	lambda_cid14_p2	lambda_cid14_p3	lambda_cid14_p4	lambda_cid14_p5	/jointset/ground_pelvis/pelvis_tilt/accel	/jointset/ground_pelvis/pelvis_tx/accel	/jointset/ground_pelvis/pelvis_ty/accel	/jointset/hip_r/hip_flexion_r/accel	/jointset/hip_r/hip_adduction_r/accel	/jointset/hip_r/hip_rotation_r/accel	/jointset/back/lumbar_extension/accel	/jointset/patellofemoral_r/patellar_flexion_r/accel	/jointset/knee_r/knee_flexion_r/accel	/jointset/knee_r/knee_adduction_r/accel	/jointset/knee_r/knee_rotation_r/accel	/jointset/ankle_r/ankle_angle_r/accel	/jointset/subtalar_r/subtalar_angle_r/accel	gamma_cid13_p0	gamma_cid14_p0	gamma_cid14_p1	gamma_cid14_p2	gamma_cid14_p3	gamma_cid14_p4	gamma_cid14_p5
0.5	-0.1735140282544183	0.02872232825206781	0.804059649689186	0.9253196236458978	-0.2226268411275826	-0.1261831017042658	-0.6477733722651354	0.9545317039564194	0.9545317039564137	-0.05169115180415485	0.1745148978119169	0.2952504437027195	0.1393420787872586	-0.4450376899716907	-0.2062223625775896	-0.5104806868296435	1.959948437060997	-0.009731347583551363	0.163971612270516	-0.7369011175212096	1.930374678200736	1.930374678200826	-0.4758138800879152	0.0003680350193595928	0.5287050799336576	0.1951421428083328	-0.2149895453498058	0.0274935382792932	0.01454148893992555	-0.2658312122495362	-0.01709524167449167	-0.005645295046732906	0.2492304346298561	-8.477327189810861	-48.20541729580157	-10.21320344571881	1.274653268713793	-2.944649181700541	-639.1373886332971	49.25286124245486	0.3816763425379956	0.5934391394649202	-0.4390628693507983	-1.306993072386978	-0.2886336081560636	-0.5839455525339546	1.790017209902832	-1.316536900615122	-1.316536900615126	0.5391723402283536	-0.009879960855916341	-0.5772622200264138	-0.467176916851562	-1.422579757563014e-07	-1.626720845435482e-07	4.206669414655989e-07	-1.715130873702154e-06	5.794020793010691e-08	-2.870439671675359e-07	3.372752235523125e-07
0.51	-0.1779442830939013	0.02668996375794189	0.7989340815975218	0.9448506116160511	-0.2227393187941575	-0.1245710608909471	-0.6550523848394909	0.9737669849244537	0.9737669849244618	-0.05641921221581191	0.1745186569393725	0.3005074995565555	0.1412683381141075	-0.4409379537016681	-0.2002341595155979	-0.5145184028122561	1.945986740495514	-0.01274799350744933	0.1584582901513453	-0.7188156241626228	1.916424836088471	1.916424836088518	-0.4697605464327512	0.000381947317610819	0.5226281172444851	0.190081880555895	-0.2220960305869204	0.02887447788854262	0.01456837747216737	-0.2700370551015824	-0.01867386958012372	-0.005245691766590409	0.2556261323337027	-7.530945526341142	-49.04077229816881	-10.37578365532589	1.517442760233404	-2.813042849609068	-644.2695351090139	49.24606631331464	0.4354047136303786	0.6039785224929067	-0.3690033392993564	-1.480142520856429	-0.3059728403476212	-0.53202696397297	1.830681377024387	-1.472680643468243	-1.4726806434747	0.644120194104006	0.006426967380758992	-0.6346306200712122	-0.5297611288865423	-1.570588630369141e-07	-1.920773286977804e-07	2.987742569815309e-07	-2.000930148970348e-06	8.481164986195985e-08	-2.9460667445728e-07	2.087914635760614e-07
0.52	-0.1823312840818083	0.02471797482102129	0.7937715608707143	0.9642341057061008	-0.2228815214711444	-0.1230135535832972	-0.6621479692846231	0.9928550729159794	0.9928550729160064	-0.06108559802774828	0.1745224352182468	0.3057014423181596	0.1431431327685412	-0.4363869196557987	-0.1941472511365248	-0.5178712138581592	1.930449661040941	-0.01567634966496619	0.1530649111375979	-0.7002154916765244	1.900936082898771	1.900936082898775	-0.4634789601398322	0.0003718653044651554	0.5160824614869706	0.1848492083255876	-0.2292025158240376	0.03025541749774849	0.01459526600459322	-0.274242897953605	-0.02025249748576696	-0.004846088486525333	0.2620218300375488	-6.643136416840591	-49.87273173760209	-10.53305038754037	1.753994576915463	-2.716554717804494	-649.3591241432448	49.300907703958	0.4719358977073259	0.6131802028812271	-0.3020818820089213	-1.622069650205132	-0.2709756548798185	-0.5599569314492454	1.892945035405148	-1.624319116101946	-1.624319116101927	0.5848228677794031	-0.01467882313530591	-0.6710008336947717	-0.5016589124254964	-1.80203381126224e-07	-2.479790728197621e-07	4.51359743435437e-09	-2.570862263389885e-06	1.437996124045221e-07	-3.172464722122869e-07	-3.980726491458521e-08
0.53	-0.1866705613933467	0.02280731749072782	0.7885789747163415	0.9834544041981103	-0.2230530281409646	-0.1215064405127285	-0.6690550492691342	1.011781059258478	1.011781059258524	-0.06568481875684976	0.1745251390516369	0.310827567220429	0.144963906560766	-0.4313942406013791	-0.1879708614680126	-0.5205267832254573	1.913347566123526	-0.01862062864434677	0.1485005846503951	-0.6811248657831446	1.884027931167218	1.884027931167235	-0.4561994148621678	0.0001325442705081896	0.5090706511147955	0.1792561587040501	-0.2361907139398372	0.03129356486010392	0.01475514518247921	-0.2787872613587307	-0.02163619837542512	-0.004505958494719913	0.2683153962798143	-5.814554732210828	-50.66034566448688	-10.71057042054596	1.99627555683285	-2.618749811078968	-654.6238609813421	49.40760776005092	0.5240477967614763	0.6219063236193024	-0.2294752230703187	-1.793689858300314	-0.3059216715879793	-0.3835987098341135	1.928467282781037	-1.759012894699733	-1.759012894697867	0.8243767984513608	-0.03458120081532926	-0.727057811560159	-0.5959007649923641	-1.602878241231682e-07	-1.938220360359921e-07	2.492007368123119e-07	-2.077577397644909e-06	8.408562672119212e-08	-2.712469158208083e-07	1.374078074544387e-07
